<svg width="13" height="13" viewBox="0 0 13 13" version="1.1" xmlns="http://www.w3.org/2000/svg" xmlns:xlink="http://www.w3.org/1999/xlink">
	<path transform="translate(2 2)" fill="#373535" d="M 0.92 4.31C 0.538924 3.8019 -0.181898 3.69892 -0.69 4.08C -1.1981 4.46108 -1.30108 5.1819 -0.92 5.69L 0.92 4.31ZM 3 9L 2.08 9.69C 2.30393 9.98858 2.65883 10.1599 3.03191 10.1496C 3.40498 10.1392 3.74983 9.94844 3.95686 9.63791L 3 9ZM 9.95686 0.637905C 10.3092 0.109447 10.1664 -0.604553 9.63791 -0.956858C 9.10945 -1.30916 8.39545 -1.16636 8.04314 -0.637905L 9.95686 0.637905ZM -0.92 5.69L 2.08 9.69L 3.92 8.31L 0.92 4.31L -0.92 5.69ZM 3.95686 9.63791L 9.95686 0.637905L 8.04314 -0.637905L 2.04314 8.36209L 3.95686 9.63791Z"/>
</svg>
