<?xml version="1.0" encoding="UTF-8"?>
<svg width="378px" height="376px" viewBox="0 0 378 376" version="1.1" xmlns="http://www.w3.org/2000/svg" xmlns:xlink="http://www.w3.org/1999/xlink">
    <!-- Generator: sketchtool 41.2 (35397) - http://www.bohemiancoding.com/sketch -->
    <title>6B53E3F2-8F08-467F-B902-88D8734A423E</title>
    <desc>Created with sketchtool.</desc>
    <defs></defs>
    <g id="Page-1" stroke="none" stroke-width="1" fill="none" fill-rule="evenodd" opacity="0.149999991">
        <g id="LandingSberbank_M" transform="translate(-390.000000, 0.000000)" fill="#FFFFFF">
            <g id="header" transform="translate(0.000000, -86.000000)">
                <path d="M579.03,103.6152 C579.03,118.317607 576.824672,131.969637 572.41395,144.5717 C568.003228,157.173763 561.702291,168.200403 553.51095,177.65195 C545.319609,187.103497 535.343125,194.559606 523.5812,200.0205 C511.819275,205.481394 498.587307,208.2118 483.8849,208.2118 C469.182493,208.2118 456.055541,205.58641 444.50365,200.33555 C432.951759,195.08469 423.185307,187.838613 415.204,178.5971 C407.222693,169.355587 401.026772,158.433963 396.61605,145.8319 C392.205328,133.229837 390,119.577807 390,104.8754 C390,90.1729932 392.205328,76.520963 396.61605,63.9189 C401.026772,51.316837 407.327709,40.2901973 415.51905,30.83865 C423.710391,21.3871027 433.686875,13.930994 445.4488,8.4701 C457.210725,3.00920603 470.442693,0.2788 485.1451,0.2788 C499.427438,0.2788 512.449375,2.90419041 524.2113,8.15505 C535.973225,13.4059096 545.844693,20.6519871 553.826,29.8935 C561.807307,39.1350129 568.003228,50.056637 572.41395,62.6587 C576.824672,75.260763 579.03,88.9127932 579.03,103.6152 Z M537.4434,104.2453 C537.4434,83.6619304 533.13776,66.8594318 524.52635,53.8373 C515.91494,40.8151682 502.577957,34.3042 484.515,34.3042 C466.452043,34.3042 453.11506,40.8151682 444.50365,53.8373 C435.89224,66.8594318 431.5866,83.6619304 431.5866,104.2453 C431.5866,124.82867 435.89224,141.631168 444.50365,154.6533 C453.11506,167.675432 466.452043,174.1864 484.515,174.1864 C502.577957,174.1864 515.91494,167.675432 524.52635,154.6533 C533.13776,141.631168 537.4434,124.82867 537.4434,104.2453 Z M708.8306,4.0594 L756.0881,4.0594 L474.4334,457.7314 L427.1759,457.7314 L708.8306,4.0594 Z M793.264,356.9154 C793.264,371.617807 791.058672,385.269837 786.64795,397.8719 C782.237228,410.473963 775.936291,421.500603 767.74495,430.95215 C759.553609,440.403697 749.577125,447.859806 737.8152,453.3207 C726.053275,458.781594 712.821307,461.512 698.1189,461.512 C683.416493,461.512 670.289541,458.88661 658.73765,453.63575 C647.185759,448.38489 637.419307,441.138813 629.438,431.8973 C621.456693,422.655787 615.260772,411.734163 610.85005,399.1321 C606.439328,386.530037 604.234,372.878007 604.234,358.1756 C604.234,343.473193 606.439328,329.821163 610.85005,317.2191 C615.260772,304.617037 621.561709,293.590397 629.75305,284.13885 C637.944391,274.687303 647.920875,267.231194 659.6828,261.7703 C671.444725,256.309406 684.676693,253.579 699.3791,253.579 C713.661438,253.579 726.683375,256.20439 738.4453,261.45525 C750.207225,266.70611 760.078693,273.952187 768.06,283.1937 C776.041307,292.435213 782.237228,303.356837 786.64795,315.9589 C791.058672,328.560963 793.264,342.212993 793.264,356.9154 Z M751.6774,357.5455 C751.6774,336.96213 747.37176,320.159632 738.76035,307.1375 C730.14894,294.115368 716.811957,287.6044 698.749,287.6044 C680.686043,287.6044 667.34906,294.115368 658.73765,307.1375 C650.12624,320.159632 645.8206,336.96213 645.8206,357.5455 C645.8206,378.12887 650.12624,394.931368 658.73765,407.9535 C667.34906,420.975632 680.686043,427.4866 698.749,427.4866 C716.811957,427.4866 730.14894,420.975632 738.76035,407.9535 C747.37176,394.931368 751.6774,378.12887 751.6774,357.5455 Z" id="%"></path>
            </g>
        </g>
    </g>
</svg>