<?xml version="1.0" encoding="UTF-8"?>
<svg width="23px" height="23px" viewBox="0 0 23 23" version="1.1" xmlns="http://www.w3.org/2000/svg" xmlns:xlink="http://www.w3.org/1999/xlink">
    <!-- Generator: sketchtool 42 (36781) - http://www.bohemiancoding.com/sketch -->
    <title>207CF56E-61D8-433B-80DA-7EC8D844CA26</title>
    <desc>Created with sketchtool.</desc>
    <defs></defs>
    <g id="Page-1" stroke="none" stroke-width="1" fill="none" fill-rule="evenodd" opacity="0.5">
        <g id="Главная---детали" transform="translate(-381.000000, -920.000000)">
            <g id="Expanded-Info" transform="translate(381.000000, 918.000000)">
                <g id="Pizza-[NEW]">
                    <g id="InfoIcon-Copy-33" transform="translate(1.000000, 3.000000)">
                        <path d="M21,10.5 C21,16.298625 16.2995,21 10.5,21 C4.701375,21 0,16.298625 0,10.5 C0,4.7009375 4.701375,0 10.5,0 C16.2995,0 21,4.7009375 21,10.5 L21,10.5 Z" id="Stroke-5627" stroke="#ACA095" stroke-width="1.5"></path>
                        <path d="M11.0742188,9.046875 L11.6542969,9.046875 L11.6542969,14.2324219 L11.8300781,14.4140625 L12.5039062,14.4609375 L12.5039062,15 L9.35742188,15 L9.35742188,14.4609375 L10.0078125,14.4140625 L10.1777344,14.2324219 L10.1777344,10.0898438 L9.38671875,10.0898438 L9.38671875,9.609375 L11.0742188,9.046875 Z M10.9453125,6.31054688 C11.2070326,6.31054688 11.4218742,6.39355386 11.5898438,6.55957031 C11.7578133,6.72558677 11.8417969,6.93554561 11.8417969,7.18945312 C11.8417969,7.45507945 11.7587899,7.67285071 11.5927734,7.84277344 C11.426757,8.01269616 11.214845,8.09765625 10.9570312,8.09765625 C10.70703,8.09765625 10.4980477,8.01367271 10.3300781,7.84570312 C10.1621085,7.67773354 10.078125,7.46679814 10.078125,7.21289062 C10.078125,6.95507684 10.161132,6.74023523 10.3271484,6.56835938 C10.4931649,6.39648352 10.6992175,6.31054688 10.9453125,6.31054688 L10.9453125,6.31054688 Z" id="i" fill="#ACA095"></path>
                    </g>
                </g>
            </g>
        </g>
    </g>
</svg>