<?xml version="1.0" encoding="UTF-8"?>
<svg width="18px" height="18px" viewBox="0 0 18 18" version="1.1" xmlns="http://www.w3.org/2000/svg" xmlns:xlink="http://www.w3.org/1999/xlink">
    <!-- Generator: Sketch 47.1 (45422) - http://www.bohemiancoding.com/sketch -->
    <title>Warning</title>
    <desc>Created with Sketch.</desc>
    <defs></defs>
    <g id="Screens" stroke="none" stroke-width="1" fill="none" fill-rule="evenodd">
        <g id="10-1.-GS-/-Mob-/-Checkout-/-States" transform="translate(-2880.000000, -513.000000)">
            <g id="Your-order" transform="translate(2865.000000, 99.000000)">
                <g id="Message" transform="translate(15.000000, 414.000000)">
                    <g id="Warning">
                        <circle id="Oval" fill="#000000" cx="9" cy="10" r="7"></circle>
                        <path d="M9,0 C4.01538462,0 0,4.01538462 0,9 C0,13.9846154 4.01538462,18 9,18 C13.9846154,18 18,13.9846154 18,9 C18,4.01538462 13.9846154,0 9,0 Z M9.69230769,13.8461538 C9.69230769,14.2615385 9.41538462,14.5384615 9,14.5384615 L8.30769231,14.5384615 L8.30769231,13.1538462 L9.69230769,13.1538462 L9.69230769,13.8461538 Z M9.69230769,11.7692308 L8.30769231,11.7692308 L8.30769231,3.46153846 L9,3.46153846 C9.41538462,3.46153846 9.69230769,3.73846154 9.69230769,4.15384615 L9.69230769,11.7692308 Z" id="Shape" fill="#FFD200" fill-rule="nonzero"></path>
                    </g>
                </g>
            </g>
        </g>
    </g>
</svg>