<?xml version="1.0" encoding="UTF-8"?>
<svg width="18px" height="18px" viewBox="0 0 18 18" version="1.1" xmlns="http://www.w3.org/2000/svg" xmlns:xlink="http://www.w3.org/1999/xlink">
    <!-- Generator: Sketch 47.1 (45422) - http://www.bohemiancoding.com/sketch -->
    <title>Delete</title>
    <desc>Created with Sketch.</desc>
    <defs></defs>
    <g id="Screens" stroke="none" stroke-width="1" fill="none" fill-rule="evenodd">
        <g id="10-1.-GS-/-Mob-/-Checkout-/-States" transform="translate(-905.000000, -1504.000000)">
            <g id="Adress-&amp;-Phone" transform="translate(890.000000, 1307.000000)">
                <g id="Name-+-Phone" transform="translate(15.000000, 20.000000)">
                    <g id="Message" transform="translate(0.000000, 176.000000)">
                        <g id="Delete" transform="translate(0.000000, 1.000000)">
                            <rect id="ovl" fill="#FC0000" x="0" y="0" width="18" height="18" rx="9"></rect>
                            <path d="M9.8497789,9 L12.824005,6.02577387 C13.058665,5.7911139 13.058665,5.41065493 12.824005,5.17599497 C12.5893451,4.94133501 12.2088861,4.94133501 11.9742261,5.17599497 L9,8.1502211 L6.02577387,5.17599497 C5.7911139,4.94133501 5.41065493,4.94133501 5.17599497,5.17599497 C4.94133501,5.41065493 4.94133501,5.7911139 5.17599497,6.02577387 L8.1502211,9 L5.17599497,11.9742261 C4.94133501,12.2088861 4.94133501,12.5893451 5.17599497,12.824005 C5.41065493,13.058665 5.7911139,13.058665 6.02577387,12.824005 L9,9.8497789 L11.9742261,12.824005 C12.2088861,13.058665 12.5893451,13.058665 12.824005,12.824005 C13.058665,12.5893451 13.058665,12.2088861 12.824005,11.9742261 L9.8497789,9 Z" id="X" fill="#FFFFFF"></path>
                        </g>
                    </g>
                </g>
            </g>
        </g>
    </g>
</svg>