<svg width="20px" height="20px" viewBox="0 0 20 20" version="1.1" xmlns="http://www.w3.org/2000/svg" xmlns:xlink="http://www.w3.org/1999/xlink">
	<g id="Page-1" stroke="none" stroke-width="1" fill="none" fill-rule="evenodd">
		<g id="Моя-корзина---1280---New-1" transform="translate(-130.000000, -440.000000)">
			<g id="Content" transform="translate(106.000000, 137.000000)">
				<g id="%" transform="translate(25.000000, 304.000000)">
					<path d="M8.40527344,6.88427734 C8.40527344,7.53174152 8.22330911,8.06176552 7.859375,8.47436523 C7.49544089,8.88696495 7.02783489,9.09326172 6.45654297,9.09326172 C5.88525105,9.09326172 5.41658712,8.88696495 5.05053711,8.47436523 C4.6844871,8.06176552 4.50146484,7.53174152 4.50146484,6.88427734 C4.50146484,6.24104496 4.6844871,5.71313683 5.05053711,5.30053711 C5.41658712,4.88793739 5.88525105,4.68164062 6.45654297,4.68164062 C7.02783489,4.68164062 7.49544089,4.88687946 7.859375,5.29736328 C8.22330911,5.7078471 8.40527344,6.23681317 8.40527344,6.88427734 Z M6.45654297,8.28076172 C6.73584124,8.28076172 6.96118078,8.15275193 7.13256836,7.89672852 C7.30395594,7.6407051 7.38964844,7.30322475 7.38964844,6.88427734 C7.38964844,6.45686635 7.3060718,6.11832807 7.13891602,5.86865234 C6.97176023,5.61897662 6.74430482,5.49414062 6.45654297,5.49414062 C6.17301291,5.49414062 5.9455575,5.62003455 5.77416992,5.87182617 C5.60278235,6.1236178 5.51708984,6.46109814 5.51708984,6.88427734 C5.51708984,7.30745654 5.60278235,7.64599482 5.77416992,7.89990234 C5.9455575,8.15380986 6.17301291,8.28076172 6.45654297,8.28076172 Z M6.35498047,14 L5.18701172,14 L8.68457031,9.2265625 L11.8964844,4.84033203 L13.0517578,4.84033203 L9.49707031,9.70263672 L6.35498047,14 Z M13.7055664,11.949707 C13.7055664,12.5971712 13.5236021,13.1271952 13.159668,13.5397949 C12.7957339,13.9523946 12.3281279,14.1586914 11.7568359,14.1586914 C11.185544,14.1586914 10.7168801,13.9523946 10.3508301,13.5397949 C9.98478007,13.1271952 9.80175781,12.5971712 9.80175781,11.949707 C9.80175781,11.3064746 9.98478007,10.7785665 10.3508301,10.3659668 C10.7168801,9.95336708 11.185544,9.74707031 11.7568359,9.74707031 C12.3281279,9.74707031 12.7957339,9.95230915 13.159668,10.362793 C13.5236021,10.7732768 13.7055664,11.3022429 13.7055664,11.949707 Z M11.7568359,13.3461914 C12.0361342,13.3461914 12.2614738,13.2181816 12.4328613,12.9621582 C12.6042489,12.7061348 12.6899414,12.3686544 12.6899414,11.949707 C12.6899414,11.522296 12.6063648,11.1837578 12.439209,10.934082 C12.2720532,10.6844063 12.0445978,10.5595703 11.7568359,10.5595703 C11.4733059,10.5595703 11.2458505,10.6854642 11.0744629,10.9372559 C10.9030753,11.1890475 10.8173828,11.5265278 10.8173828,11.949707 C10.8173828,12.3728862 10.9030753,12.7114245 11.0744629,12.965332 C11.2458505,13.2192396 11.4733059,13.3461914 11.7568359,13.3461914 Z" fill="#FF6900"></path>
					<circle id="Oval-3" stroke="#FF6900 " cx="9" cy="9" r="9"></circle>
				</g>
			</g>
		</g>
	</g>
</svg>