<svg width="43" height="41" viewBox="0 0 43 41" fill="none" xmlns="http://www.w3.org/2000/svg">
<path d="M6.28554 0.597037H18.9427V2.88972L6.28554 2.93749C4.18779 2.93749 3.46164 4.46594 3.46164 5.23017V35.2261C3.46164 37.2322 5.12573 37.9487 5.93256 37.9487H21.111V26.0076H16.6735C16.0179 26.0076 15.4632 25.53 15.4632 25.0046V19.1296C15.4632 18.031 16.3205 18.031 16.7743 18.031H21.1615V13.971C21.7262 8.88891 26.0024 7.55469 28.0699 7.52285H34.3229C35.0793 7.52285 35.2306 8.14379 35.2306 8.5259V14.3054C35.2306 15.2224 34.4742 15.4995 34.0203 15.4995H29.5828V18.031H34.0203C34.928 18.031 35.2306 18.6042 35.2306 19.034V24.909C35.2306 25.8643 34.3901 26.0713 33.9699 26.0554H29.5828V37.9487H37.6006C39.8194 37.9487 40.4245 36.3724 40.4245 35.1783V5.56452C40.4245 3.42468 38.5419 2.88972 37.6006 2.88972H23.582V0.597037H37.6006C41.9172 0.597037 42.8954 3.90869 42.845 5.56452V35.1783C42.845 39.3338 39.4664 40.1936 37.6006 40.1936H28.5238C27.3539 40.1936 27.095 39.3657 27.1118 38.9517V25.0046C27.1118 24.0493 27.8514 23.7786 28.2212 23.7627H32.7596V20.3237H28.2212C27.3741 20.3237 27.1118 19.5594 27.1118 19.1773V14.3054C27.1118 13.3979 28.0699 13.159 28.5238 13.159H32.7596V9.81553H28.8264C24.9132 9.77732 23.6996 12.5699 23.582 13.971V19.1773C23.582 20.0848 22.7751 20.3237 22.3213 20.3237H17.8837V23.7627H22.3213C23.3298 23.7627 23.582 24.4792 23.582 25.0046V38.9517C23.582 40.0598 22.6238 40.1936 22.1196 40.1936H5.93256C2.01943 40.1172 1.00753 36.8501 0.990723 35.2261V5.23017C1.43448 1.37082 4.7055 0.533352 6.28554 0.597037Z" fill="#FFF6EE"/>
<path d="M18.9427 0.597037H23.582V2.88972H18.9427V0.597037Z" fill="#FFF6EE"/>
</svg>
