<svg width="42" height="41" viewBox="0 0 42 41" fill="none" xmlns="http://www.w3.org/2000/svg">
<path d="M8.87705 40.4986H33.3908C37.8185 40.4986 41.4212 36.9055 41.4212 32.4896V8.04119C41.4212 3.6253 37.8185 0.0322266 33.3908 0.0322266H8.87705C4.44936 0.0322266 0.84668 3.6253 0.84668 8.04119V32.4896C0.84668 36.9055 4.44936 40.4986 8.87705 40.4986ZM3.38259 8.04119C3.38259 5.0197 5.84749 2.56137 8.87705 2.56137H33.3908C36.4204 2.56137 38.8853 5.0197 38.8853 8.04119V32.4896C38.8853 35.5111 36.4204 37.9694 33.3908 37.9694H8.87705C5.84749 37.9694 3.38259 35.5111 3.38259 32.4896V8.04119Z" fill="white"/>
<path d="M21.1339 30.6012C26.8482 30.6012 31.4973 25.9645 31.4973 20.2655C31.4973 14.5665 26.8482 9.92969 21.1339 9.92969C15.4197 9.92969 10.7705 14.5665 10.7705 20.2655C10.7705 25.9645 15.4197 30.6012 21.1339 30.6012ZM21.1339 12.4588C25.45 12.4588 28.9614 15.9609 28.9614 20.2655C28.9614 24.5701 25.45 28.0721 21.1339 28.0721C16.8178 28.0721 13.3064 24.5701 13.3064 20.2655C13.3064 15.9609 16.8178 12.4588 21.1339 12.4588Z" fill="white"/>
<path d="M35.8183 8.60774C35.8183 10.2041 34.5208 11.4982 32.9202 11.4982C31.3195 11.4982 30.022 10.2041 30.022 8.60774C30.022 7.01139 31.3195 5.71729 32.9202 5.71729C34.5208 5.71729 35.8183 7.01139 35.8183 8.60774ZM32.003 8.60774C32.003 9.11289 32.4136 9.5224 32.9202 9.5224C33.4267 9.5224 33.8373 9.11289 33.8373 8.60774C33.8373 8.10258 33.4267 7.69307 32.9202 7.69307C32.4136 7.69307 32.003 8.10258 32.003 8.60774Z" fill="white"/>
</svg>
