<svg width="67" height="37" viewBox="0 0 67 37" fill="none" xmlns="http://www.w3.org/2000/svg">
<path d="M28.0815 12.7896L41.4667 21.3308V18.4837L29.2206 10.8915C27.5119 9.94235 26.6575 11.8404 28.0815 12.7896Z" fill="white"/>
<path d="M54.7025 12.7896L41.4667 21.3308V18.4837L53.5634 10.8915C55.2721 9.94235 56.1265 11.8404 54.7025 12.7896Z" fill="white"/>
<path d="M12.4978 16.589H16.6551C17.4203 16.589 17.5993 15.5978 17.5994 15.2483V5.59882C17.5994 1.82304 18.932 0.564443 22.8484 0.564453H23.4859H61.2819C64.471 0.564453 66.7025 2.93368 66.7025 5.59882V30.3736C66.7025 36.1631 62.2705 36.7489 60.4636 36.7489H12.4978C10.4162 36.7489 10.6438 34.4228 12.4978 34.4228H60.4636C63.6513 34.4228 64.1978 31.5366 64.1978 30.3736V5.59882C64.1978 3.27829 62.0259 2.93368 61.2819 2.93368H22.8484C20.8447 2.93368 20.116 3.36444 20.116 5.59882C20.116 6.85741 20.1616 12.2693 20.1616 16.2968C20.1616 18.2259 18.7958 18.9339 17.2015 18.829H12.4978C10.5073 18.829 10.4617 16.589 12.4978 16.589Z" fill="white"/>
<path d="M26.2959 25.4896C26.9187 25.4873 27.415 25.9768 27.4201 26.5987C27.4256 27.2582 26.8791 27.8087 26.2186 27.8089L1.71602 27.8162C1.09854 27.8164 0.607561 27.3306 0.602052 26.714C0.596181 26.0568 1.14158 25.5085 1.79972 25.5099L13.9571 25.5359L26.2959 25.4896Z" fill="white"/>
</svg>
