<svg width="454" height="421" viewBox="0 0 454 421" fill="none" xmlns="http://www.w3.org/2000/svg">
<path d="M24.042 381.945C24.042 403.484 41.5029 420.945 63.042 420.945C84.5811 420.945 102.042 403.484 102.042 381.945C102.042 360.406 84.5811 342.945 63.042 342.945C41.5029 342.945 24.042 360.406 24.042 381.945ZM79.0609 381.945C79.0609 390.792 71.889 397.964 63.042 397.964C54.195 397.964 47.0231 390.792 47.0231 381.945C47.0231 373.098 54.195 365.926 63.042 365.926C71.889 365.926 79.0609 373.098 79.0609 381.945Z" fill="#fff"/>
<path d="M251.042 381.945C251.042 403.484 268.503 420.945 290.042 420.945C311.581 420.945 329.042 403.484 329.042 381.945C329.042 360.406 311.581 342.945 290.042 342.945C268.503 342.945 251.042 360.406 251.042 381.945ZM306.032 381.945C306.032 390.776 298.873 397.935 290.042 397.935C281.211 397.935 274.052 390.776 274.052 381.945C274.052 373.114 281.211 365.955 290.042 365.955C298.873 365.955 306.032 373.114 306.032 381.945Z" fill="#fff"/>
<path d="M275.333 85.691C295.157 85.691 295.157 58.9125 275.333 58.9125H52.3093C-7.16356 58.9125 -2.20696 96.4023 2.74943 123.181L27.5291 257.073C31.4941 295.634 62.2215 301.704 77.0896 299.918H295.157C290.201 337.408 270.377 342.764 250.552 342.764H62.2214L82.0457 369.542H250.552C294.165 373.827 310.025 348.12 314.981 321.341C319.938 299.918 385.698 62.1934 389.322 42.8455C391.675 31.9299 397.185 31.9734 399.234 32.1341H438.883C458.707 32.1341 458.707 0 438.883 0H399.234C375.445 0 366.194 21.4227 364.542 32.1341L300.113 273.14H77.0896C57.2654 273.14 53.9613 258.858 52.3093 251.717L27.5291 123.181C19.5994 93.1889 37.4413 85.691 47.3534 85.691H275.333Z" fill="#fff"/>
<!-- <path d="M171.353 138.841C171.351 136.278 173.374 134.243 175.934 134.233V134.233C178.637 134.222 180.885 136.464 180.886 139.17L180.904 226.936C180.905 229.483 178.894 231.506 176.35 231.517V231.517C173.662 231.529 171.425 229.301 171.423 226.609L171.353 138.841Z" fill="#555555"/> -->
<!-- <path d="M121.098 138.948C121.096 136.385 123.12 134.349 125.679 134.339V134.339C128.382 134.328 130.63 136.57 130.631 139.276L130.649 227.042C130.65 229.59 128.639 231.612 126.095 231.623V231.623C123.408 231.636 121.17 229.407 121.168 226.716L121.098 138.948Z" fill="#555555"/> -->
<!-- <path d="M220.914 138.841C220.912 136.278 222.935 134.243 225.495 134.233V134.233C228.197 134.222 230.446 136.464 230.446 139.17L230.465 226.936C230.465 229.483 228.455 231.506 225.911 231.517V231.517C223.223 231.529 220.986 229.301 220.983 226.609L220.914 138.841Z" fill="#555555"/> -->
</svg>
