<svg width="349" height="421" viewBox="0 0 349 421" fill="none" xmlns="http://www.w3.org/2000/svg">
<path d="M323.999 327.715L270 258.5V348.782C270 381.796 237.474 421.001 173.999 421V394.5C221.604 394.5 242.999 365.163 242.999 348.782V221.715C242.999 207.215 260.507 201.375 270.499 213.715L345.5 312.5C355.493 326.45 333.992 341.665 323.999 327.715Z" fill="#EF7F1A"/>
<path d="M24.0871 327.715L78.0858 258.5V348.782C78.0858 381.796 110.612 421.001 174.087 421V394.5C126.482 394.5 105.087 365.163 105.087 348.782V221.715C105.087 207.215 87.5794 201.375 77.5871 213.715L2.58577 312.5C-7.40705 326.45 14.0943 341.665 24.0871 327.715Z" fill="#EF7F1A"/>
<path d="M260.999 84C260.999 130.392 223.391 168 176.999 168C130.607 168 92.999 130.392 92.999 84C92.999 37.6081 130.607 0 176.999 0C223.391 0 260.999 37.6081 260.999 84ZM121.054 84C121.054 114.898 146.101 139.945 176.999 139.945C207.897 139.945 232.944 114.898 232.944 84C232.944 53.1024 207.897 28.055 176.999 28.055C146.101 28.055 121.054 53.1024 121.054 84Z" fill="#EF7F1A"/>
</svg>
