<svg width="401" height="420" viewBox="0 0 401 420" fill="none" xmlns="http://www.w3.org/2000/svg">
<path d="M390.737 310.42L337.749 254.921C324.068 240.591 301.918 240.587 288.234 254.921C282.312 261.123 257.113 287.517 251.142 293.77C246.049 299.105 210.402 288.038 168.185 243.821C149.359 224.103 134.36 203.004 125.953 184.413C118.331 167.56 119.014 158.486 120.496 156.933L157.588 118.084C171.24 103.786 171.24 80.5208 157.588 66.2228L104.599 10.7232C90.9474 -3.5748 68.7359 -3.57399 55.0847 10.7232C49.1629 16.9255 23.9627 43.3198 17.9923 49.573C-4.15971 72.7747 -5.91486 113.221 13.0495 163.462C60.9383 290.329 212.222 419.975 304.394 419.975C324.875 419.975 341.668 413.675 353.645 401.13L390.737 362.281C404.419 347.951 404.423 324.752 390.737 310.42ZM86.8771 29.2851L139.865 84.7848C143.745 88.8478 143.745 95.4595 139.865 99.5233L127.531 112.442L60.4715 42.2042L72.8061 29.2851C76.6861 25.2222 82.9979 25.2222 86.8771 29.2851V29.2851ZM254.123 381.896C168.282 346.35 70.2905 243.709 36.3568 153.812C21.5112 114.484 21.2771 83.2557 35.7138 68.135L42.7493 60.7661L109.809 131.003L102.774 138.372C55.6995 187.677 221.742 361.688 268.863 312.331L275.899 304.962L342.958 375.201L335.923 382.569C321.486 397.689 291.671 397.444 254.123 381.896ZM373.015 343.72L360.681 356.639L293.622 286.401L305.957 273.481C309.843 269.41 316.139 269.409 320.028 273.482L373.016 328.981C376.904 333.054 376.905 339.645 373.015 343.72Z" fill="#EF7F1A"/>
<path d="M225.555 165.357C235.229 165.357 243.098 173.6 243.098 183.732C243.098 190.981 248.709 196.857 255.63 196.857C262.551 196.857 268.161 190.981 268.161 183.732C268.161 159.126 249.048 139.107 225.555 139.107C218.634 139.107 213.023 144.984 213.023 152.232C213.023 159.481 218.634 165.357 225.555 165.357Z" fill="#EF7F1A"/>
<path d="M225.555 102.357C268.395 102.357 303.248 138.862 303.248 183.732C303.248 190.98 308.858 196.857 315.78 196.857C322.701 196.857 328.311 190.98 328.311 183.732C328.311 124.387 282.215 76.1069 225.555 76.1069C218.634 76.1069 213.023 81.9837 213.023 89.2319C213.023 96.4802 218.634 102.357 225.555 102.357V102.357Z" fill="#EF7F1A"/>
<path d="M225.555 39.3572C301.562 39.3572 363.398 104.123 363.398 183.732C363.398 190.98 369.009 196.857 375.93 196.857C382.851 196.857 388.461 190.98 388.461 183.732C388.461 89.6497 315.381 13.1072 225.555 13.1072C218.634 13.1072 213.023 18.9839 213.023 26.2322C213.023 33.4805 218.634 39.3572 225.555 39.3572Z" fill="#EF7F1A"/>
</svg>
