<svg width="63" height="62" viewBox="0 0 63 62" fill="none" xmlns="http://www.w3.org/2000/svg">
<path d="M61.9766 52.3125C61.9766 49.1427 60.2532 46.2694 57.5339 44.7349C57.902 43.6015 58.1016 42.408 58.1016 41.1825C58.1016 36.4298 55.111 32.114 50.6596 30.4449L50.3516 30.3286V28.5239C50.9241 28.8571 51.5799 29.0625 52.2891 29.0625H60.0391V21.3125H52.2891C51.5799 21.3125 50.9241 21.5179 50.3516 21.8511V21.3125C50.3516 19.7615 49.5988 18.3123 48.3617 17.4065C48.1108 15.7829 46.7158 14.5312 45.0234 14.5312L33.1766 14.5303C34.5629 13.3106 35.5093 11.6085 35.7506 9.68555H38.7237C40.326 9.68555 41.6299 8.38161 41.6299 6.7793C41.6299 5.17698 40.326 3.87305 38.7237 3.87305H34.0988C32.6331 2.04986 30.4224 0.966797 28.0674 0.966797C23.7943 0.966797 20.3174 4.44364 20.3174 8.7168C20.3174 11.5901 21.8926 14.0972 24.2215 15.436C22.1978 16.4368 20.6197 18.196 19.8573 20.3437H4.82031C3.218 20.3437 1.91406 21.6477 1.91406 23.25V34.875C1.91406 36.4773 3.218 37.7812 4.82031 37.7812H7.83409C6.57375 39.0135 5.78906 40.7282 5.78906 42.625V44.5877C4.61978 45.4721 3.85156 46.8613 3.85156 48.4375C3.85156 50.4302 5.06347 52.1439 6.78688 52.886C7.08428 57.4265 10.8624 61.0312 15.4766 61.0312C19.957 61.0312 23.6548 57.6338 24.1382 53.2812H42.6587C43.1421 57.6338 46.8398 61.0312 51.3203 61.0312C55.8008 61.0312 59.4985 57.6338 59.9819 53.2812H61.9766V52.3125ZM59.9703 51.3437H52.6901L54.7419 49.2919C55.5702 48.4636 56.2532 47.5298 56.785 46.5232C58.5113 47.5753 59.6826 49.3433 59.9703 51.3437ZM42.4882 47.8485L39.7341 36.1421C39.0172 33.0915 36.5566 30.7869 33.4633 30.2715L32.9141 30.1795L32.9121 21.3125H44.5391V51.3437H41.9196C42.3594 50.6646 42.6006 49.8761 42.5996 49.0478V48.8153C42.5996 48.4937 42.5618 48.1691 42.4882 47.8485ZM54.0483 53.2812C53.6473 54.4059 52.5816 55.2187 51.3203 55.2187C50.059 55.2187 48.9934 54.4059 48.5923 53.2812H54.0483ZM56.1641 41.1825C56.1641 41.3404 56.1486 41.4964 56.1408 41.6533C54.0144 41.6378 52.2891 39.4736 52.2891 36.8125C52.2891 35.8195 52.5293 34.8779 52.973 34.0787C54.9551 35.8573 56.1641 38.4293 56.1641 41.1825ZM51.3997 32.9346C50.7216 34.0651 50.3516 35.4049 50.3516 36.8125C50.3516 40.4279 52.7918 43.3835 55.8512 43.5753C55.4307 45.2038 54.5928 46.7015 53.3721 47.9221L49.9505 51.3437H46.4766V20.9725C47.0656 20.6905 47.5577 20.2478 47.8987 19.6966C48.2184 20.1703 48.4141 20.7245 48.4141 21.3125V31.6713L49.9796 32.2584C50.4765 32.4444 50.9493 32.674 51.3997 32.9346ZM58.1016 27.125H56.1641V23.25H58.1016V27.125ZM52.2891 23.25H54.2266V27.125H52.2891C51.2205 27.125 50.3516 26.256 50.3516 25.1875C50.3516 24.119 51.2205 23.25 52.2891 23.25ZM39.6934 6.7793C39.6934 7.31308 39.2594 7.74805 38.7246 7.74805H30.6046L30.7702 7.4177C31.2662 6.42667 32.2621 5.81055 33.3703 5.81055H38.7246C39.2594 5.81055 39.6934 6.24551 39.6934 6.7793ZM28.0684 2.9043C29.4004 2.9043 30.6704 3.37027 31.6886 4.18208C30.5552 4.59961 29.6 5.42402 29.0371 6.55067L28.4384 7.74805H22.3431C22.8071 5.00358 25.1941 2.9043 28.0684 2.9043ZM22.3431 9.68555H33.7927C33.3297 12.43 30.9427 14.5293 28.0674 14.5293C25.1922 14.5293 22.8071 12.43 22.3431 9.68555ZM21.2871 23.25C21.2871 19.5096 24.33 16.4668 28.0703 16.4668L45.0234 16.4687C45.8246 16.4687 46.4766 17.1207 46.4766 17.9219C46.4766 18.723 45.8246 19.375 45.0234 19.375H27.1016V21.3125H30.9746L30.9766 31.8205L33.1456 32.1828C35.4648 32.5684 37.3102 34.2976 37.8479 36.5848L40.6011 48.2883C40.6418 48.4636 40.6621 48.6399 40.6621 48.8153V49.0488C40.6621 49.662 40.4238 50.2384 39.9908 50.6714C39.5568 51.1054 38.9813 51.3437 38.3681 51.3437C37.3132 51.3437 36.3987 50.6288 36.1419 49.6058L33.6193 39.5124C33.0788 37.3521 31.1471 35.8437 28.9199 35.8437L26.1299 35.8428C23.4591 35.8428 21.2871 33.6699 21.2871 30.999V23.25ZM34.8138 51.3437H30.9766V42.625C30.9766 40.7291 30.1919 39.0144 28.9335 37.7822C30.2636 37.788 31.4173 38.6909 31.7409 39.9813L34.2635 50.0747C34.3778 50.5358 34.5677 50.962 34.8138 51.3437ZM9.66406 22.2812H13.5391V26.1562H9.66406V22.2812ZM4.82031 35.8437C4.28556 35.8437 3.85156 35.4097 3.85156 34.875V23.25C3.85156 22.7162 4.28556 22.2812 4.82031 22.2812H7.72656V28.0937H15.4766V22.2812H19.4068C19.3709 22.6 19.3496 22.9225 19.3496 23.25V30.999C19.3496 32.8958 20.1353 34.6115 21.3947 35.8437H20.3203H12.5703H4.82031ZM15.4766 59.0937C12.0675 59.0937 9.24556 56.5614 8.77281 53.2812H10.7307C11.1811 55.489 13.137 57.1562 15.4766 57.1562C17.8161 57.1562 19.772 55.489 20.2225 53.2812H22.1803C21.7076 56.5614 18.8856 59.0937 15.4766 59.0937ZM12.7486 53.2812H18.2036C17.8025 54.4059 16.7369 55.2187 15.4756 55.2187C14.2143 55.2187 13.1496 54.4059 12.7486 53.2812ZM25.1641 51.3437H8.69531C7.093 51.3437 5.78906 50.0398 5.78906 48.4375C5.78906 46.8352 7.093 45.5312 8.69531 45.5312H22.2578C23.8601 45.5312 25.1641 46.8352 25.1641 48.4375V51.3437ZM22.2578 43.5937H8.69531C8.364 43.5937 8.03947 43.6276 7.72656 43.6916V42.625C7.72656 39.9541 9.89947 37.7812 12.5703 37.7812H20.3203H24.1953C26.8662 37.7812 29.0391 39.9541 29.0391 42.625V51.3437H27.1016V48.4375C27.1016 45.7666 24.9287 43.5937 22.2578 43.5937ZM51.3203 59.0937C47.9113 59.0937 45.0893 56.5614 44.6166 53.2812H46.5744C47.0249 55.489 48.9808 57.1562 51.3203 57.1562C53.6598 57.1562 55.6157 55.489 56.0662 53.2812H58.0241C57.5513 56.5614 54.7293 59.0937 51.3203 59.0937Z" fill="#F47E1C"/>
<path d="M11.6016 47.4688H13.5391V49.4062H11.6016V47.4688Z" fill="#F47E1C"/>
<path d="M7.72656 47.4688H9.66406V49.4062H7.72656V47.4688Z" fill="#F47E1C"/>
<path d="M15.4766 47.4688H17.4141V49.4062H15.4766V47.4688Z" fill="#F47E1C"/>
</svg>
