<svg width="49" height="35" viewBox="0 0 49 35" fill="none" xmlns="http://www.w3.org/2000/svg">
<path d="M6.54903 0.667969V2.82454H3.88392C2.29163 2.82454 2.38834 4.20639 2.63573 4.89731C9.78755 23.0645 20.585 31.9042 23.9248 31.9042C25.9826 31.9042 27.6334 30.4533 27.6334 28.8358V23.6742C28.1394 20.0976 32.0189 20.7073 32.6936 22.0485L39.2045 31.884H45.6141C46.9635 31.884 46.5925 30.2583 46.1876 29.6486L39.8792 18.919C39.2585 17.3908 39.823 15.8166 40.1828 15.2205L46.1876 5.14117C47.0647 3.75932 46.1876 2.86518 45.5467 2.86518H39.5756C39.1438 2.86518 38.8109 3.3529 38.6985 3.59675L33.5707 13.5542C32.5587 15.7895 31.3663 16.1147 30.6695 16.1147C28.4768 16.1147 27.6784 14.0419 27.6334 12.9445V3.92189C27.6064 3.20658 26.9137 2.91937 26.6213 2.90583H18.6185C17.1517 2.92635 17.1597 5.32159 18.6185 5.30374H19.4358V12.7601C19.1436 15.3908 16.3157 14.947 15.4213 13.8387C14.0821 12.1792 11.5868 6.49592 10.5297 3.84061C10.3678 3.22284 9.96747 2.90583 9.78755 2.82454V0.667969C11.3798 0.863053 12.2052 2.13362 12.4189 2.82454C13.3905 6.59617 15.7924 10.6821 16.8719 12.2536C17.2767 12.8226 17.6141 12.3755 17.6141 12.0911V7.07014C14.7311 7.07014 14.5405 0.667969 18.3165 0.667969H26.6213C28.8883 0.667969 29.5225 2.7839 29.5563 3.92189V12.9445C29.5563 13.8387 30.2748 13.9525 30.5446 13.9525C31.1519 13.9931 31.378 13.229 31.5466 12.9445L36.5057 3.23097C37.5852 1.11755 38.2588 0.667969 39.3383 0.667969H45.9807C49.0506 1.15568 48.8554 4.86068 48.1105 6.03531L41.9708 16.2366C41.4252 17.1129 41.5997 17.781 41.9708 18.3907L47.8744 28.1855C48.3804 28.8764 48.7358 30.146 48.7358 30.9182C48.7358 33.9258 46.3563 34.1193 45.1756 34.1193H39.1033C38.4016 34.1193 37.8663 33.5503 37.6864 33.2658L31.5129 23.9993C30.9394 22.902 29.5225 23.2678 29.5225 24.6903V28.8358C29.1482 34.9196 22.8428 34.6283 20.4926 33.3954C9.91328 26.665 3.01808 12.064 0.881547 5.66952C-0.11701 2.28806 2.01289 0.952467 3.18237 0.667969H6.54903Z" fill="white"/>
<path d="M6.54903 0.667969H9.78755V2.82454H6.54903V0.667969Z" fill="white"/>
</svg>
